<svg width="91" height="122" viewBox="0 0 91 122" fill="none" xmlns="http://www.w3.org/2000/svg">
<rect width="91" height="121.333" rx="10" fill="white"/>
<circle cx="44.7013" cy="83.7237" r="23.9474" fill="#F9F9F9"/>
<g filter="url(#filter0_d_349_2948)">
<circle cx="44.7011" cy="83.7235" r="20.4257" fill="white"/>
</g>
<path d="M33.5996 82.2355V80.3875H37.1556V90.2715H35.0836V82.2355H33.5996ZM38.7107 85.2455C38.7107 88.5962 39.9707 90.2715 42.4907 90.2715C43.8254 90.2715 44.7867 89.8235 45.3747 88.9275C45.9627 88.0315 46.2567 86.8042 46.2567 85.2455C46.2567 83.6962 45.9627 82.4735 45.3747 81.5775C44.7867 80.6815 43.8254 80.2335 42.4907 80.2335C39.9707 80.2335 38.7107 81.9042 38.7107 85.2455ZM44.3107 85.2455C44.3107 86.2628 44.1847 87.0468 43.9327 87.5975C43.6901 88.1388 43.2094 88.4095 42.4907 88.4095C41.7627 88.4095 41.2727 88.1388 41.0207 87.5975C40.7781 87.0468 40.6567 86.2628 40.6567 85.2455C40.6567 84.2375 40.7781 83.4628 41.0207 82.9215C41.2727 82.3708 41.7627 82.0955 42.4907 82.0955C43.2094 82.0955 43.6901 82.3708 43.9327 82.9215C44.1847 83.4628 44.3107 84.2375 44.3107 85.2455ZM47.5564 85.2455C47.5564 88.5962 48.8164 90.2715 51.3364 90.2715C52.6711 90.2715 53.6324 89.8235 54.2204 88.9275C54.8084 88.0315 55.1024 86.8042 55.1024 85.2455C55.1024 83.6962 54.8084 82.4735 54.2204 81.5775C53.6324 80.6815 52.6711 80.2335 51.3364 80.2335C48.8164 80.2335 47.5564 81.9042 47.5564 85.2455ZM53.1564 85.2455C53.1564 86.2628 53.0304 87.0468 52.7784 87.5975C52.5358 88.1388 52.0551 88.4095 51.3364 88.4095C50.6084 88.4095 50.1184 88.1388 49.8664 87.5975C49.6238 87.0468 49.5024 86.2628 49.5024 85.2455C49.5024 84.2375 49.6238 83.4628 49.8664 82.9215C50.1184 82.3708 50.6084 82.0955 51.3364 82.0955C52.0551 82.0955 52.5358 82.3708 52.7784 82.9215C53.0304 83.4628 53.1564 84.2375 53.1564 85.2455ZM58.3621 80.2335C59.0155 80.2335 59.5475 80.4342 59.9581 80.8355C60.3781 81.2275 60.5881 81.7735 60.5881 82.4735C60.5881 83.1735 60.3781 83.7242 59.9581 84.1255C59.5475 84.5175 59.0155 84.7135 58.3621 84.7135C57.7088 84.7135 57.1721 84.5175 56.7521 84.1255C56.3415 83.7242 56.1361 83.1735 56.1361 82.4735C56.1361 81.7735 56.3415 81.2275 56.7521 80.8355C57.1721 80.4342 57.7088 80.2335 58.3621 80.2335ZM64.6901 80.3595L59.1881 90.2715H57.2841L62.7861 80.3595H64.6901ZM57.4661 82.4735C57.4661 82.7908 57.5455 83.0475 57.7041 83.2435C57.8628 83.4302 58.0775 83.5235 58.3481 83.5235C58.6188 83.5235 58.8381 83.4302 59.0061 83.2435C59.1741 83.0475 59.2581 82.7908 59.2581 82.4735C59.2581 82.1562 59.1741 81.9042 59.0061 81.7175C58.8381 81.5215 58.6188 81.4235 58.3481 81.4235C58.0775 81.4235 57.8628 81.5215 57.7041 81.7175C57.5455 81.9042 57.4661 82.1562 57.4661 82.4735ZM63.6261 85.9175C64.2795 85.9175 64.8115 86.1182 65.2221 86.5195C65.6328 86.9115 65.8381 87.4575 65.8381 88.1575C65.8381 88.8575 65.6328 89.4082 65.2221 89.8095C64.8115 90.2015 64.2795 90.3975 63.6261 90.3975C62.9728 90.3975 62.4361 90.2015 62.0161 89.8095C61.6055 89.4082 61.4001 88.8575 61.4001 88.1575C61.4001 87.4575 61.6055 86.9115 62.0161 86.5195C62.4361 86.1182 62.9728 85.9175 63.6261 85.9175ZM62.7301 88.1575C62.7301 88.4842 62.8095 88.7455 62.9681 88.9415C63.1268 89.1282 63.3415 89.2215 63.6121 89.2215C63.8828 89.2215 64.1021 89.1282 64.2701 88.9415C64.4381 88.7455 64.5221 88.4842 64.5221 88.1575C64.5221 87.8402 64.4381 87.5835 64.2701 87.3875C64.1021 87.1915 63.8828 87.0935 63.6121 87.0935C63.3415 87.0935 63.1268 87.1915 62.9681 87.3875C62.8095 87.5742 62.7301 87.8308 62.7301 88.1575Z" fill="black"/>
<path d="M37.4156 93.4855V94.9315H39.0236V95.3515H37.4156V96.8275H39.2036V97.2715H36.8696V93.0415H39.2036V93.4855H37.4156ZM41.8008 97.2715L40.9428 96.0115L40.1688 97.2715H39.5628L40.6428 95.5735L39.5568 93.9775H40.1808L41.0148 95.2015L41.7768 93.9775H42.3828L41.3088 95.6335L42.4248 97.2715H41.8008ZM44.3921 93.9355C44.8121 93.9355 45.1601 94.0475 45.4361 94.2715C45.7121 94.4955 45.8821 94.7955 45.9461 95.1715H45.3701C45.3301 94.9355 45.2201 94.7515 45.0401 94.6195C44.8641 94.4835 44.6441 94.4155 44.3801 94.4155C44.1881 94.4155 44.0121 94.4595 43.8521 94.5475C43.6961 94.6355 43.5701 94.7715 43.4741 94.9555C43.3781 95.1355 43.3301 95.3595 43.3301 95.6275C43.3301 95.8955 43.3781 96.1215 43.4741 96.3055C43.5701 96.4855 43.6961 96.6195 43.8521 96.7075C44.0121 96.7955 44.1881 96.8395 44.3801 96.8395C44.6441 96.8395 44.8641 96.7715 45.0401 96.6355C45.2201 96.4995 45.3301 96.3135 45.3701 96.0775H45.9461C45.8821 96.4575 45.7121 96.7595 45.4361 96.9835C45.1601 97.2035 44.8121 97.3135 44.3921 97.3135C44.0761 97.3135 43.7961 97.2455 43.5521 97.1095C43.3081 96.9735 43.1161 96.7795 42.9761 96.5275C42.8401 96.2715 42.7721 95.9715 42.7721 95.6275C42.7721 95.2835 42.8401 94.9835 42.9761 94.7275C43.1161 94.4715 43.3081 94.2755 43.5521 94.1395C43.7961 94.0035 44.0761 93.9355 44.3921 93.9355ZM49.6907 95.4415C49.6907 95.5575 49.6827 95.6575 49.6667 95.7415H47.0327C47.0447 96.1175 47.1507 96.3995 47.3507 96.5875C47.5547 96.7755 47.8027 96.8695 48.0947 96.8695C48.3587 96.8695 48.5787 96.8035 48.7547 96.6715C48.9347 96.5355 49.0447 96.3555 49.0847 96.1315H49.6667C49.6267 96.3595 49.5367 96.5635 49.3967 96.7435C49.2607 96.9235 49.0827 97.0635 48.8627 97.1635C48.6427 97.2635 48.3947 97.3135 48.1187 97.3135C47.8027 97.3135 47.5227 97.2455 47.2787 97.1095C47.0347 96.9735 46.8427 96.7795 46.7027 96.5275C46.5667 96.2715 46.4987 95.9715 46.4987 95.6275C46.4987 95.2835 46.5667 94.9835 46.7027 94.7275C46.8427 94.4715 47.0347 94.2755 47.2787 94.1395C47.5227 94.0035 47.8027 93.9355 48.1187 93.9355C48.4387 93.9355 48.7167 94.0035 48.9527 94.1395C49.1927 94.2755 49.3747 94.4575 49.4987 94.6855C49.6267 94.9135 49.6907 95.1655 49.6907 95.4415ZM49.1387 95.4775C49.1507 95.2335 49.1107 95.0295 49.0187 94.8655C48.9267 94.7015 48.8007 94.5795 48.6407 94.4995C48.4807 94.4195 48.3067 94.3795 48.1187 94.3795C47.8187 94.3795 47.5667 94.4735 47.3627 94.6615C47.1587 94.8455 47.0487 95.1175 47.0327 95.4775H49.1387ZM50.9508 92.8315V97.2715H50.4048V92.8315H50.9508ZM52.3746 92.8315V97.2715H51.8286V92.8315H52.3746ZM56.2825 95.4415C56.2825 95.5575 56.2745 95.6575 56.2585 95.7415H53.6245C53.6365 96.1175 53.7425 96.3995 53.9425 96.5875C54.1465 96.7755 54.3945 96.8695 54.6865 96.8695C54.9505 96.8695 55.1705 96.8035 55.3465 96.6715C55.5265 96.5355 55.6365 96.3555 55.6765 96.1315H56.2585C56.2185 96.3595 56.1285 96.5635 55.9885 96.7435C55.8525 96.9235 55.6745 97.0635 55.4545 97.1635C55.2345 97.2635 54.9865 97.3135 54.7105 97.3135C54.3945 97.3135 54.1145 97.2455 53.8705 97.1095C53.6265 96.9735 53.4345 96.7795 53.2945 96.5275C53.1585 96.2715 53.0905 95.9715 53.0905 95.6275C53.0905 95.2835 53.1585 94.9835 53.2945 94.7275C53.4345 94.4715 53.6265 94.2755 53.8705 94.1395C54.1145 94.0035 54.3945 93.9355 54.7105 93.9355C55.0305 93.9355 55.3085 94.0035 55.5445 94.1395C55.7845 94.2755 55.9665 94.4575 56.0905 94.6855C56.2185 94.9135 56.2825 95.1655 56.2825 95.4415ZM55.7305 95.4775C55.7425 95.2335 55.7025 95.0295 55.6105 94.8655C55.5185 94.7015 55.3925 94.5795 55.2325 94.4995C55.0725 94.4195 54.8985 94.3795 54.7105 94.3795C54.4105 94.3795 54.1585 94.4735 53.9545 94.6615C53.7505 94.8455 53.6405 95.1175 53.6245 95.4775H55.7305ZM58.7306 93.9235C59.1146 93.9235 59.4246 94.0475 59.6606 94.2955C59.8966 94.5395 60.0146 94.8935 60.0146 95.3575V97.2715H59.4686V95.4055C59.4686 95.0775 59.3846 94.8255 59.2166 94.6495C59.0486 94.4735 58.8206 94.3855 58.5326 94.3855C58.2326 94.3855 57.9926 94.4835 57.8126 94.6795C57.6326 94.8715 57.5426 95.1535 57.5426 95.5255V97.2715H56.9966V93.9775H57.5426V94.7575C57.6266 94.4895 57.7746 94.2835 57.9866 94.1395C58.2026 93.9955 58.4506 93.9235 58.7306 93.9235ZM62.4241 96.7915V97.2715H62.0161C61.6801 97.2715 61.4281 97.1915 61.2601 97.0315C61.0961 96.8715 61.0141 96.6035 61.0141 96.2275V94.4515H60.5221V93.9775H61.0141V93.1555H61.5661V93.9775H62.4181V94.4515H61.5661V96.2395C61.5661 96.4515 61.6041 96.5975 61.6801 96.6775C61.7601 96.7535 61.8961 96.7915 62.0881 96.7915H62.4241Z" fill="#EF833B"/>
<path d="M78.2265 82.9717C78.2265 74.0921 74.6942 65.5763 68.4068 59.2975C62.1194 53.0187 53.5919 49.4913 44.7001 49.4913C35.8084 49.4913 27.2809 53.0187 20.9935 59.2975C14.7061 65.5763 11.1738 74.0921 11.1738 82.9717H13.6187C13.6187 74.7397 16.8933 66.8448 22.7222 61.0239C28.5511 55.2029 36.4568 51.9328 44.7001 51.9328C52.9435 51.9328 60.8492 55.2029 66.6781 61.0239C72.507 66.8448 75.7816 74.7397 75.7816 82.9717H78.2265Z" fill="url(#paint0_linear_349_2948)"/>
<path d="M78.2265 82.9717C78.2265 75.3019 75.5895 67.8647 70.7566 61.9038L68.8565 63.4401C73.337 68.9663 75.7816 75.8612 75.7816 82.9717H78.2265Z" fill="url(#paint1_linear_349_2948)"/>
<path d="M71.1097 62.3469C68.1476 58.5644 64.4054 55.4624 60.1371 53.2515C55.8688 51.0405 51.1742 49.7723 46.3718 49.5329L46.2499 51.9714C50.702 52.1933 55.0543 53.3691 59.0114 55.4188C62.9685 57.4685 66.4377 60.3442 69.1838 63.8509L71.1097 62.3469Z" fill="url(#paint2_linear_349_2948)"/>
<path d="M47.9199 49.646C39.0693 48.7933 30.2419 51.4865 23.3797 57.1333L24.9345 59.0175C31.2962 53.7825 39.4799 51.2857 47.6851 52.0762L47.9199 49.646Z" fill="url(#paint3_linear_349_2948)"/>
<path d="M14.1158 12.2661H12.3278L12.0038 13.1841H11.2718L12.8318 9.01408H13.6178L15.1718 13.1841H14.4398L14.1158 12.2661ZM13.9238 11.7381L13.2218 9.75808L12.5198 11.7381H13.9238ZM17.7616 12.5901V13.1841H17.3416C16.9896 13.1841 16.7216 13.1001 16.5376 12.9321C16.3576 12.7601 16.2676 12.4761 16.2676 12.0801V10.4601H15.7936V9.87808H16.2676V9.05608H16.9576V9.87808H17.7556V10.4601H16.9576V12.0921C16.9576 12.2801 16.9916 12.4101 17.0596 12.4821C17.1316 12.5541 17.2556 12.5901 17.4316 12.5901H17.7616ZM23.3726 8.94808V9.50008H22.1906V13.1841H21.5006V9.50008H20.3246V8.94808H23.3726ZM27.375 11.3721C27.375 11.4841 27.367 11.5821 27.351 11.6661H24.807C24.819 12.0061 24.913 12.2581 25.089 12.4221C25.265 12.5861 25.483 12.6681 25.743 12.6681C25.971 12.6681 26.163 12.6101 26.319 12.4941C26.479 12.3781 26.577 12.2241 26.613 12.0321H27.345C27.301 12.2641 27.209 12.4701 27.069 12.6501C26.929 12.8301 26.747 12.9721 26.523 13.0761C26.299 13.1761 26.049 13.2261 25.773 13.2261C25.453 13.2261 25.169 13.1581 24.921 13.0221C24.677 12.8861 24.485 12.6901 24.345 12.4341C24.205 12.1781 24.135 11.8761 24.135 11.5281C24.135 11.1841 24.205 10.8841 24.345 10.6281C24.485 10.3721 24.677 10.1761 24.921 10.0401C25.169 9.90408 25.453 9.83608 25.773 9.83608C26.097 9.83608 26.379 9.90408 26.619 10.0401C26.863 10.1721 27.049 10.3561 27.177 10.5921C27.309 10.8241 27.375 11.0841 27.375 11.3721ZM26.685 11.3541C26.693 11.1381 26.655 10.9581 26.571 10.8141C26.491 10.6661 26.379 10.5581 26.235 10.4901C26.095 10.4181 25.941 10.3821 25.773 10.3821C25.505 10.3821 25.281 10.4641 25.101 10.6281C24.921 10.7921 24.823 11.0341 24.807 11.3541H26.685ZM30.3274 13.1841L29.1394 11.7141V13.1841H28.4554V8.74408H29.1394V11.2881L30.3154 9.87808H31.1374L29.6974 11.5221L31.1734 13.1841H30.3274ZM34.2475 11.0001C34.5035 11.0521 34.7095 11.1741 34.8655 11.3661C35.0255 11.5581 35.1055 11.7821 35.1055 12.0381C35.1055 12.3901 34.9875 12.6701 34.7515 12.8781C34.5155 13.0821 34.1735 13.1841 33.7255 13.1841H32.0395V8.94808H33.6955C34.1195 8.94808 34.4435 9.04408 34.6675 9.23608C34.8955 9.42408 35.0095 9.68408 35.0095 10.0161C35.0095 10.2841 34.9395 10.5021 34.7995 10.6701C34.6595 10.8341 34.4755 10.9441 34.2475 11.0001ZM32.7235 10.7721H33.5695C33.8095 10.7721 33.9915 10.7161 34.1155 10.6041C34.2435 10.4921 34.3075 10.3361 34.3075 10.1361C34.3075 9.94008 34.2435 9.78608 34.1155 9.67408C33.9915 9.56208 33.8015 9.50608 33.5455 9.50608H32.7235V10.7721ZM33.5875 12.6201C33.8475 12.6201 34.0475 12.5621 34.1875 12.4461C34.3315 12.3261 34.4035 12.1601 34.4035 11.9481C34.4035 11.7361 34.3315 11.5701 34.1875 11.4501C34.0435 11.3301 33.8415 11.2701 33.5815 11.2701H32.7235V12.6201H33.5875ZM37.4945 9.83608C37.7945 9.83608 38.0505 9.91008 38.2625 10.0581C38.4745 10.2061 38.6245 10.4021 38.7125 10.6461V9.87808H39.3965V13.1841H38.7125V12.4161C38.6245 12.6601 38.4745 12.8561 38.2625 13.0041C38.0505 13.1521 37.7945 13.2261 37.4945 13.2261C37.2065 13.2261 36.9485 13.1581 36.7205 13.0221C36.4965 12.8861 36.3205 12.6901 36.1925 12.4341C36.0645 12.1781 36.0005 11.8761 36.0005 11.5281C36.0005 11.1841 36.0645 10.8841 36.1925 10.6281C36.3205 10.3721 36.4965 10.1761 36.7205 10.0401C36.9485 9.90408 37.2065 9.83608 37.4945 9.83608ZM37.7045 10.4361C37.4005 10.4361 37.1565 10.5341 36.9725 10.7301C36.7925 10.9221 36.7025 11.1881 36.7025 11.5281C36.7025 11.8681 36.7925 12.1361 36.9725 12.3321C37.1565 12.5241 37.4005 12.6201 37.7045 12.6201C37.8965 12.6201 38.0685 12.5761 38.2205 12.4881C38.3725 12.3961 38.4925 12.2681 38.5805 12.1041C38.6685 11.9401 38.7125 11.7481 38.7125 11.5281C38.7125 11.3121 38.6685 11.1221 38.5805 10.9581C38.4925 10.7901 38.3725 10.6621 38.2205 10.5741C38.0685 10.4821 37.8965 10.4361 37.7045 10.4361ZM41.0273 9.87808L42.0173 12.3081L42.9353 9.87808H43.6973L41.6993 14.7561H40.9373L41.6513 13.1061L40.2593 9.87808H41.0273ZM46.229 12.5901V13.1841H45.809C45.457 13.1841 45.189 13.1001 45.005 12.9321C44.825 12.7601 44.735 12.4761 44.735 12.0801V10.4601H44.261V9.87808H44.735V9.05608H45.425V9.87808H46.223V10.4601H45.425V12.0921C45.425 12.2801 45.459 12.4101 45.527 12.4821C45.599 12.5541 45.723 12.5901 45.899 12.5901H46.229ZM47.7098 12.7161C47.7818 12.9001 47.8178 13.0901 47.8178 13.2861C47.8178 13.5101 47.7598 13.6921 47.6438 13.8321C47.5278 13.9761 47.3518 14.0481 47.1158 14.0481V13.7721C47.2158 13.7721 47.2898 13.7461 47.3378 13.6941C47.3858 13.6421 47.4098 13.5541 47.4098 13.4301V13.3761H47.0618V12.7161H47.7098ZM16.9538 16.9481L15.8978 21.1841H15.0578L14.1638 17.9081L13.2698 21.1841H12.4298L11.3738 16.9481H12.1238L12.8558 20.3921L13.7858 16.9481H14.5418L15.4718 20.3921L16.2038 16.9481H16.9538ZM21.0583 19.3721C21.0583 19.4841 21.0503 19.5821 21.0343 19.6661H18.4903C18.5023 20.0061 18.5963 20.2581 18.7723 20.4221C18.9483 20.5861 19.1663 20.6681 19.4263 20.6681C19.6543 20.6681 19.8463 20.6101 20.0023 20.4941C20.1623 20.3781 20.2603 20.2241 20.2963 20.0321H21.0283C20.9843 20.2641 20.8923 20.4701 20.7523 20.6501C20.6123 20.8301 20.4303 20.9721 20.2063 21.0761C19.9823 21.1761 19.7323 21.2261 19.4563 21.2261C19.1363 21.2261 18.8523 21.1581 18.6043 21.0221C18.3603 20.8861 18.1683 20.6901 18.0283 20.4341C17.8883 20.1781 17.8183 19.8761 17.8183 19.5281C17.8183 19.1841 17.8883 18.8841 18.0283 18.6281C18.1683 18.3721 18.3603 18.1761 18.6043 18.0401C18.8523 17.9041 19.1363 17.8361 19.4563 17.8361C19.7803 17.8361 20.0623 17.9041 20.3023 18.0401C20.5463 18.1721 20.7323 18.3561 20.8603 18.5921C20.9923 18.8241 21.0583 19.0841 21.0583 19.3721ZM20.3683 19.3541C20.3763 19.1381 20.3383 18.9581 20.2543 18.8141C20.1743 18.6661 20.0623 18.5581 19.9183 18.4901C19.7783 18.4181 19.6243 18.3821 19.4563 18.3821C19.1883 18.3821 18.9643 18.4641 18.7843 18.6281C18.6043 18.7921 18.5063 19.0341 18.4903 19.3541H20.3683ZM25.291 17.8361C25.591 17.8361 25.847 17.9101 26.059 18.0581C26.271 18.2061 26.419 18.4021 26.503 18.6461V16.7441H27.193V21.1841H26.503V20.4161C26.419 20.6601 26.271 20.8561 26.059 21.0041C25.847 21.1521 25.591 21.2261 25.291 21.2261C25.003 21.2261 24.745 21.1581 24.517 21.0221C24.293 20.8861 24.117 20.6901 23.989 20.4341C23.861 20.1781 23.797 19.8761 23.797 19.5281C23.797 19.1841 23.861 18.8841 23.989 18.6281C24.117 18.3721 24.293 18.1761 24.517 18.0401C24.745 17.9041 25.003 17.8361 25.291 17.8361ZM25.501 18.4361C25.197 18.4361 24.953 18.5341 24.769 18.7301C24.589 18.9221 24.499 19.1881 24.499 19.5281C24.499 19.8681 24.589 20.1361 24.769 20.3321C24.953 20.5241 25.197 20.6201 25.501 20.6201C25.693 20.6201 25.865 20.5761 26.017 20.4881C26.169 20.3961 26.289 20.2681 26.377 20.1041C26.465 19.9401 26.509 19.7481 26.509 19.5281C26.509 19.3121 26.465 19.1221 26.377 18.9581C26.289 18.7901 26.169 18.6621 26.017 18.5741C25.865 18.4821 25.693 18.4361 25.501 18.4361ZM31.5058 19.3721C31.5058 19.4841 31.4978 19.5821 31.4818 19.6661H28.9378C28.9498 20.0061 29.0438 20.2581 29.2198 20.4221C29.3958 20.5861 29.6138 20.6681 29.8738 20.6681C30.1018 20.6681 30.2938 20.6101 30.4498 20.4941C30.6098 20.3781 30.7078 20.2241 30.7438 20.0321H31.4758C31.4318 20.2641 31.3398 20.4701 31.1998 20.6501C31.0598 20.8301 30.8778 20.9721 30.6538 21.0761C30.4298 21.1761 30.1798 21.2261 29.9038 21.2261C29.5838 21.2261 29.2998 21.1581 29.0518 21.0221C28.8078 20.8861 28.6158 20.6901 28.4758 20.4341C28.3358 20.1781 28.2658 19.8761 28.2658 19.5281C28.2658 19.1841 28.3358 18.8841 28.4758 18.6281C28.6158 18.3721 28.8078 18.1761 29.0518 18.0401C29.2998 17.9041 29.5838 17.8361 29.9038 17.8361C30.2278 17.8361 30.5098 17.9041 30.7498 18.0401C30.9938 18.1721 31.1798 18.3561 31.3078 18.5921C31.4398 18.8241 31.5058 19.0841 31.5058 19.3721ZM30.8158 19.3541C30.8238 19.1381 30.7858 18.9581 30.7018 18.8141C30.6218 18.6661 30.5098 18.5581 30.3658 18.4901C30.2258 18.4181 30.0718 18.3821 29.9038 18.3821C29.6358 18.3821 29.4118 18.4641 29.2318 18.6281C29.0518 18.7921 28.9538 19.0341 28.9378 19.3541H30.8158ZM33.2703 16.7441V21.1841H32.5863V16.7441H33.2703ZM34.422 16.9181C34.422 16.8021 34.462 16.7061 34.542 16.6301C34.622 16.5541 34.728 16.5161 34.86 16.5161C34.992 16.5161 35.098 16.5541 35.178 16.6301C35.262 16.7061 35.304 16.8021 35.304 16.9181C35.304 17.0341 35.262 17.1281 35.178 17.2001C35.098 17.2721 34.992 17.3081 34.86 17.3081C34.728 17.3081 34.622 17.2721 34.542 17.2001C34.462 17.1281 34.422 17.0341 34.422 16.9181ZM35.202 17.8781V21.1841H34.518V17.8781H35.202ZM37.8057 20.4761L38.7417 17.8781H39.4737L38.2137 21.1841H37.3857L36.1257 17.8781H36.8577L37.8057 20.4761ZM43.469 19.3721C43.469 19.4841 43.461 19.5821 43.445 19.6661H40.901C40.913 20.0061 41.007 20.2581 41.183 20.4221C41.359 20.5861 41.577 20.6681 41.837 20.6681C42.065 20.6681 42.257 20.6101 42.413 20.4941C42.573 20.3781 42.671 20.2241 42.707 20.0321H43.439C43.395 20.2641 43.303 20.4701 43.163 20.6501C43.023 20.8301 42.841 20.9721 42.617 21.0761C42.393 21.1761 42.143 21.2261 41.867 21.2261C41.547 21.2261 41.263 21.1581 41.015 21.0221C40.771 20.8861 40.579 20.6901 40.439 20.4341C40.299 20.1781 40.229 19.8761 40.229 19.5281C40.229 19.1841 40.299 18.8841 40.439 18.6281C40.579 18.3721 40.771 18.1761 41.015 18.0401C41.263 17.9041 41.547 17.8361 41.867 17.8361C42.191 17.8361 42.473 17.9041 42.713 18.0401C42.957 18.1721 43.143 18.3561 43.271 18.5921C43.403 18.8241 43.469 19.0841 43.469 19.3721ZM42.779 19.3541C42.787 19.1381 42.749 18.9581 42.665 18.8141C42.585 18.6661 42.473 18.5581 42.329 18.4901C42.189 18.4181 42.035 18.3821 41.867 18.3821C41.599 18.3821 41.375 18.4641 41.195 18.6281C41.015 18.7921 40.917 19.0341 40.901 19.3541H42.779ZM45.2335 18.5261C45.3455 18.3101 45.5055 18.1401 45.7135 18.0161C45.9215 17.8881 46.1615 17.8241 46.4335 17.8241V18.5681H46.2295C45.9295 18.5681 45.6875 18.6421 45.5035 18.7901C45.3235 18.9341 45.2335 19.1741 45.2335 19.5101V21.1841H44.5495V17.8781H45.2335V18.5261ZM12.2738 25.5001V26.7841H13.8338V27.3121H12.2738V28.6261H14.0138V29.1841H11.5898V24.9481H14.0138V25.5001H12.2738ZM17.0537 29.1841L16.2437 28.0141L15.5357 29.1841H14.7737L15.8657 27.4681L14.7617 25.8781H15.5357L16.3277 27.0181L17.0297 25.8781H17.7857L16.6937 27.5461L17.8277 29.1841H17.0537ZM20.1928 25.8361C20.6208 25.8361 20.9748 25.9501 21.2548 26.1781C21.5348 26.4021 21.7088 26.7081 21.7768 27.0961H21.0508C21.0108 26.8881 20.9128 26.7261 20.7568 26.6101C20.6048 26.4901 20.4128 26.4301 20.1808 26.4301C19.9168 26.4301 19.6968 26.5241 19.5208 26.7121C19.3448 26.8961 19.2568 27.1681 19.2568 27.5281C19.2568 27.8881 19.3448 28.1621 19.5208 28.3501C19.6968 28.5381 19.9168 28.6321 20.1808 28.6321C20.4128 28.6321 20.6048 28.5721 20.7568 28.4521C20.9128 28.3321 21.0108 28.1681 21.0508 27.9601H21.7768C21.7088 28.3481 21.5348 28.6561 21.2548 28.8841C20.9748 29.1121 20.6208 29.2261 20.1928 29.2261C19.8728 29.2261 19.5888 29.1581 19.3408 29.0221C19.0968 28.8861 18.9048 28.6901 18.7648 28.4341C18.6248 28.1781 18.5548 27.8761 18.5548 27.5281C18.5548 27.1841 18.6248 26.8841 18.7648 26.6281C18.9048 26.3721 19.0968 26.1761 19.3408 26.0401C19.5888 25.9041 19.8728 25.8361 20.1928 25.8361ZM25.9296 27.3721C25.9296 27.4841 25.9216 27.5821 25.9056 27.6661H23.3616C23.3736 28.0061 23.4676 28.2581 23.6436 28.4221C23.8196 28.5861 24.0376 28.6681 24.2976 28.6681C24.5256 28.6681 24.7176 28.6101 24.8736 28.4941C25.0336 28.3781 25.1316 28.2241 25.1676 28.0321H25.8996C25.8556 28.2641 25.7636 28.4701 25.6236 28.6501C25.4836 28.8301 25.3016 28.9721 25.0776 29.0761C24.8536 29.1761 24.6036 29.2261 24.3276 29.2261C24.0076 29.2261 23.7236 29.1581 23.4756 29.0221C23.2316 28.8861 23.0396 28.6901 22.8996 28.4341C22.7596 28.1781 22.6896 27.8761 22.6896 27.5281C22.6896 27.1841 22.7596 26.8841 22.8996 26.6281C23.0396 26.3721 23.2316 26.1761 23.4756 26.0401C23.7236 25.9041 24.0076 25.8361 24.3276 25.8361C24.6516 25.8361 24.9336 25.9041 25.1736 26.0401C25.4176 26.1721 25.6036 26.3561 25.7316 26.5921C25.8636 26.8241 25.9296 27.0841 25.9296 27.3721ZM25.2396 27.3541C25.2476 27.1381 25.2096 26.9581 25.1256 26.8141C25.0456 26.6661 24.9336 26.5581 24.7896 26.4901C24.6496 26.4181 24.4956 26.3821 24.3276 26.3821C24.0596 26.3821 23.8356 26.4641 23.6556 26.6281C23.4756 26.7921 23.3776 27.0341 23.3616 27.3541H25.2396ZM27.694 24.7441V29.1841H27.01V24.7441H27.694ZM29.6257 24.7441V29.1841H28.9417V24.7441H29.6257ZM33.9455 27.3721C33.9455 27.4841 33.9375 27.5821 33.9215 27.6661H31.3775C31.3895 28.0061 31.4835 28.2581 31.6595 28.4221C31.8355 28.5861 32.0535 28.6681 32.3135 28.6681C32.5415 28.6681 32.7335 28.6101 32.8895 28.4941C33.0495 28.3781 33.1475 28.2241 33.1835 28.0321H33.9155C33.8715 28.2641 33.7795 28.4701 33.6395 28.6501C33.4995 28.8301 33.3175 28.9721 33.0935 29.0761C32.8695 29.1761 32.6195 29.2261 32.3435 29.2261C32.0235 29.2261 31.7395 29.1581 31.4915 29.0221C31.2475 28.8861 31.0555 28.6901 30.9155 28.4341C30.7755 28.1781 30.7055 27.8761 30.7055 27.5281C30.7055 27.1841 30.7755 26.8841 30.9155 26.6281C31.0555 26.3721 31.2475 26.1761 31.4915 26.0401C31.7395 25.9041 32.0235 25.8361 32.3435 25.8361C32.6675 25.8361 32.9495 25.9041 33.1895 26.0401C33.4335 26.1721 33.6195 26.3561 33.7475 26.5921C33.8795 26.8241 33.9455 27.0841 33.9455 27.3721ZM33.2555 27.3541C33.2635 27.1381 33.2255 26.9581 33.1415 26.8141C33.0615 26.6661 32.9495 26.5581 32.8055 26.4901C32.6655 26.4181 32.5115 26.3821 32.3435 26.3821C32.0755 26.3821 31.8515 26.4641 31.6715 26.6281C31.4915 26.7921 31.3935 27.0341 31.3775 27.3541H33.2555ZM36.8739 25.8241C37.2579 25.8241 37.5659 25.9481 37.7979 26.1961C38.0299 26.4441 38.1459 26.7981 38.1459 27.2581V29.1841H37.4619V27.3301C37.4619 27.0341 37.3859 26.8061 37.2339 26.6461C37.0819 26.4821 36.8739 26.4001 36.6099 26.4001C36.3379 26.4001 36.1199 26.4881 35.9559 26.6641C35.7919 26.8361 35.7099 27.0901 35.7099 27.4261V29.1841H35.0259V25.8781H35.7099V26.6041C35.7979 26.3561 35.9459 26.1641 36.1539 26.0281C36.3619 25.8921 36.6019 25.8241 36.8739 25.8241ZM41.0278 28.5901V29.1841H40.6078C40.2558 29.1841 39.9878 29.1001 39.8038 28.9321C39.6238 28.7601 39.5338 28.4761 39.5338 28.0801V26.4601H39.0598V25.8781H39.5338V25.0561H40.2238V25.8781H41.0218V26.4601H40.2238V28.0921C40.2238 28.2801 40.2578 28.4101 40.3258 28.4821C40.3978 28.5541 40.5218 28.5901 40.6978 28.5901H41.0278ZM45.2408 25.8361C45.5408 25.8361 45.7968 25.9101 46.0088 26.0581C46.2208 26.2061 46.3688 26.4021 46.4528 26.6461V24.7441H47.1428V29.1841H46.4528V28.4161C46.3688 28.6601 46.2208 28.8561 46.0088 29.0041C45.7968 29.1521 45.5408 29.2261 45.2408 29.2261C44.9528 29.2261 44.6948 29.1581 44.4668 29.0221C44.2428 28.8861 44.0668 28.6901 43.9388 28.4341C43.8108 28.1781 43.7468 27.8761 43.7468 27.5281C43.7468 27.1841 43.8108 26.8841 43.9388 26.6281C44.0668 26.3721 44.2428 26.1761 44.4668 26.0401C44.6948 25.9041 44.9528 25.8361 45.2408 25.8361ZM45.4508 26.4361C45.1468 26.4361 44.9028 26.5341 44.7188 26.7301C44.5388 26.9221 44.4488 27.1881 44.4488 27.5281C44.4488 27.8681 44.5388 28.1361 44.7188 28.3321C44.9028 28.5241 45.1468 28.6201 45.4508 28.6201C45.6428 28.6201 45.8148 28.5761 45.9668 28.4881C46.1188 28.3961 46.2388 28.2681 46.3268 28.1041C46.4148 27.9401 46.4588 27.7481 46.4588 27.5281C46.4588 27.3121 46.4148 27.1221 46.3268 26.9581C46.2388 26.7901 46.1188 26.6621 45.9668 26.5741C45.8148 26.4821 45.6428 26.4361 45.4508 26.4361ZM48.2876 24.9181C48.2876 24.8021 48.3276 24.7061 48.4076 24.6301C48.4876 24.5541 48.5936 24.5161 48.7256 24.5161C48.8576 24.5161 48.9636 24.5541 49.0436 24.6301C49.1276 24.7061 49.1696 24.8021 49.1696 24.9181C49.1696 25.0341 49.1276 25.1281 49.0436 25.2001C48.9636 25.2721 48.8576 25.3081 48.7256 25.3081C48.5936 25.3081 48.4876 25.2721 48.4076 25.2001C48.3276 25.1281 48.2876 25.0341 48.2876 24.9181ZM49.0676 25.8781V29.1841H48.3836V25.8781H49.0676ZM51.6413 25.8361C51.9413 25.8361 52.1973 25.9101 52.4093 26.0581C52.6213 26.2061 52.7713 26.4021 52.8593 26.6461V25.8781H53.5433V29.2201C53.5433 29.5281 53.4793 29.8001 53.3513 30.0361C53.2273 30.2761 53.0473 30.4641 52.8113 30.6001C52.5753 30.7361 52.2953 30.8041 51.9713 30.8041C51.5073 30.8041 51.1313 30.6941 50.8433 30.4741C50.5593 30.2541 50.3813 29.9561 50.3093 29.5801H50.9873C51.0433 29.7761 51.1513 29.9281 51.3113 30.0361C51.4713 30.1481 51.6753 30.2041 51.9233 30.2041C52.1953 30.2041 52.4193 30.1201 52.5953 29.9521C52.7713 29.7841 52.8593 29.5401 52.8593 29.2201V28.4161C52.7713 28.6601 52.6213 28.8561 52.4093 29.0041C52.1973 29.1521 51.9413 29.2261 51.6413 29.2261C51.3533 29.2261 51.0953 29.1581 50.8673 29.0221C50.6433 28.8861 50.4673 28.6901 50.3393 28.4341C50.2113 28.1781 50.1473 27.8761 50.1473 27.5281C50.1473 27.1841 50.2113 26.8841 50.3393 26.6281C50.4673 26.3721 50.6433 26.1761 50.8673 26.0401C51.0953 25.9041 51.3533 25.8361 51.6413 25.8361ZM51.8513 26.4361C51.5473 26.4361 51.3033 26.5341 51.1193 26.7301C50.9393 26.9221 50.8493 27.1881 50.8493 27.5281C50.8493 27.8681 50.9393 28.1361 51.1193 28.3321C51.3033 28.5241 51.5473 28.6201 51.8513 28.6201C52.0433 28.6201 52.2153 28.5761 52.3673 28.4881C52.5193 28.3961 52.6393 28.2681 52.7273 28.1041C52.8153 27.9401 52.8593 27.7481 52.8593 27.5281C52.8593 27.3121 52.8153 27.1221 52.7273 26.9581C52.6393 26.7901 52.5193 26.6621 52.3673 26.5741C52.2153 26.4821 52.0433 26.4361 51.8513 26.4361ZM54.6882 24.9181C54.6882 24.8021 54.7282 24.7061 54.8082 24.6301C54.8882 24.5541 54.9942 24.5161 55.1262 24.5161C55.2582 24.5161 55.3642 24.5541 55.4442 24.6301C55.5282 24.7061 55.5702 24.8021 55.5702 24.9181C55.5702 25.0341 55.5282 25.1281 55.4442 25.2001C55.3642 25.2721 55.2582 25.3081 55.1262 25.3081C54.9942 25.3081 54.8882 25.2721 54.8082 25.2001C54.7282 25.1281 54.6882 25.0341 54.6882 24.9181ZM55.4682 25.8781V29.1841H54.7842V25.8781H55.4682ZM58.3779 28.5901V29.1841H57.9579C57.6059 29.1841 57.3379 29.1001 57.1539 28.9321C56.9739 28.7601 56.8839 28.4761 56.8839 28.0801V26.4601H56.4099V25.8781H56.8839V25.0561H57.5739V25.8781H58.3719V26.4601H57.5739V28.0921C57.5739 28.2801 57.6079 28.4101 57.6759 28.4821C57.7479 28.5541 57.8719 28.5901 58.0479 28.5901H58.3779ZM60.7646 25.8361C61.0646 25.8361 61.3206 25.9101 61.5326 26.0581C61.7446 26.2061 61.8946 26.4021 61.9826 26.6461V25.8781H62.6666V29.1841H61.9826V28.4161C61.8946 28.6601 61.7446 28.8561 61.5326 29.0041C61.3206 29.1521 61.0646 29.2261 60.7646 29.2261C60.4766 29.2261 60.2186 29.1581 59.9906 29.0221C59.7666 28.8861 59.5906 28.6901 59.4626 28.4341C59.3346 28.1781 59.2706 27.8761 59.2706 27.5281C59.2706 27.1841 59.3346 26.8841 59.4626 26.6281C59.5906 26.3721 59.7666 26.1761 59.9906 26.0401C60.2186 25.9041 60.4766 25.8361 60.7646 25.8361ZM60.9746 26.4361C60.6706 26.4361 60.4266 26.5341 60.2426 26.7301C60.0626 26.9221 59.9726 27.1881 59.9726 27.5281C59.9726 27.8681 60.0626 28.1361 60.2426 28.3321C60.4266 28.5241 60.6706 28.6201 60.9746 28.6201C61.1666 28.6201 61.3386 28.5761 61.4906 28.4881C61.6426 28.3961 61.7626 28.2681 61.8506 28.1041C61.9386 27.9401 61.9826 27.7481 61.9826 27.5281C61.9826 27.3121 61.9386 27.1221 61.8506 26.9581C61.7626 26.7901 61.6426 26.6621 61.4906 26.5741C61.3386 26.4821 61.1666 26.4361 60.9746 26.4361ZM64.5914 24.7441V29.1841H63.9074V24.7441H64.5914ZM12.6758 33.8361C13.0638 33.8361 13.3738 33.9361 13.6058 34.1361C13.8418 34.3321 13.9858 34.5961 14.0378 34.9281H13.3898C13.3618 34.7481 13.2838 34.6041 13.1558 34.4961C13.0318 34.3841 12.8658 34.3281 12.6578 34.3281C12.4858 34.3281 12.3518 34.3701 12.2558 34.4541C12.1638 34.5341 12.1178 34.6441 12.1178 34.7841C12.1178 34.8881 12.1518 34.9721 12.2198 35.0361C12.2878 35.1001 12.3718 35.1501 12.4718 35.1861C12.5758 35.2221 12.7218 35.2621 12.9098 35.3061C13.1578 35.3621 13.3578 35.4201 13.5098 35.4801C13.6658 35.5401 13.7978 35.6361 13.9058 35.7681C14.0178 35.8961 14.0738 36.0721 14.0738 36.2961C14.0738 36.5721 13.9678 36.7961 13.7558 36.9681C13.5478 37.1401 13.2658 37.2261 12.9098 37.2261C12.4978 37.2261 12.1638 37.1301 11.9078 36.9381C11.6558 36.7461 11.5038 36.4781 11.4518 36.1341H12.1178C12.1378 36.3141 12.2178 36.4601 12.3578 36.5721C12.4978 36.6841 12.6818 36.7401 12.9098 36.7401C13.0738 36.7401 13.2018 36.6981 13.2938 36.6141C13.3898 36.5261 13.4378 36.4161 13.4378 36.2841C13.4378 36.1681 13.4018 36.0761 13.3298 36.0081C13.2578 35.9401 13.1678 35.8881 13.0598 35.8521C12.9518 35.8121 12.8038 35.7721 12.6158 35.7321C12.3758 35.6761 12.1798 35.6201 12.0278 35.5641C11.8798 35.5081 11.7518 35.4181 11.6438 35.2941C11.5398 35.1661 11.4878 34.9941 11.4878 34.7781C11.4878 34.4981 11.5918 34.2721 11.7998 34.1001C12.0118 33.9241 12.3038 33.8361 12.6758 33.8361ZM18.2517 35.3721C18.2517 35.4841 18.2437 35.5821 18.2277 35.6661H15.6837C15.6957 36.0061 15.7897 36.2581 15.9657 36.4221C16.1417 36.5861 16.3597 36.6681 16.6197 36.6681C16.8477 36.6681 17.0397 36.6101 17.1957 36.4941C17.3557 36.3781 17.4537 36.2241 17.4897 36.0321H18.2217C18.1777 36.2641 18.0857 36.4701 17.9457 36.6501C17.8057 36.8301 17.6237 36.9721 17.3997 37.0761C17.1757 37.1761 16.9257 37.2261 16.6497 37.2261C16.3297 37.2261 16.0457 37.1581 15.7977 37.0221C15.5537 36.8861 15.3617 36.6901 15.2217 36.4341C15.0817 36.1781 15.0117 35.8761 15.0117 35.5281C15.0117 35.1841 15.0817 34.8841 15.2217 34.6281C15.3617 34.3721 15.5537 34.1761 15.7977 34.0401C16.0457 33.9041 16.3297 33.8361 16.6497 33.8361C16.9737 33.8361 17.2557 33.9041 17.4957 34.0401C17.7397 34.1721 17.9257 34.3561 18.0537 34.5921C18.1857 34.8241 18.2517 35.0841 18.2517 35.3721ZM17.5617 35.3541C17.5697 35.1381 17.5317 34.9581 17.4477 34.8141C17.3677 34.6661 17.2557 34.5581 17.1117 34.4901C16.9717 34.4181 16.8177 34.3821 16.6497 34.3821C16.3817 34.3821 16.1577 34.4641 15.9777 34.6281C15.7977 34.7921 15.6997 35.0341 15.6837 35.3541H17.5617ZM20.0161 34.5261C20.1281 34.3101 20.2881 34.1401 20.4961 34.0161C20.7041 33.8881 20.9441 33.8241 21.2161 33.8241V34.5681H21.0121C20.7121 34.5681 20.4701 34.6421 20.2861 34.7901C20.1061 34.9341 20.0161 35.1741 20.0161 35.5101V37.1841H19.3321V33.8781H20.0161V34.5261ZM23.5046 36.4761L24.4406 33.8781H25.1726L23.9126 37.1841H23.0846L21.8246 33.8781H22.5566L23.5046 36.4761ZM26 32.9181C26 32.8021 26.04 32.7061 26.12 32.6301C26.2 32.5541 26.306 32.5161 26.438 32.5161C26.57 32.5161 26.676 32.5541 26.756 32.6301C26.84 32.7061 26.882 32.8021 26.882 32.9181C26.882 33.0341 26.84 33.1281 26.756 33.2001C26.676 33.2721 26.57 33.3081 26.438 33.3081C26.306 33.3081 26.2 33.2721 26.12 33.2001C26.04 33.1281 26 33.0341 26 32.9181ZM26.78 33.8781V37.1841H26.096V33.8781H26.78ZM29.4977 33.8361C29.9257 33.8361 30.2797 33.9501 30.5597 34.1781C30.8397 34.4021 31.0137 34.7081 31.0817 35.0961H30.3557C30.3157 34.8881 30.2177 34.7261 30.0617 34.6101C29.9097 34.4901 29.7177 34.4301 29.4857 34.4301C29.2217 34.4301 29.0017 34.5241 28.8257 34.7121C28.6497 34.8961 28.5617 35.1681 28.5617 35.5281C28.5617 35.8881 28.6497 36.1621 28.8257 36.3501C29.0017 36.5381 29.2217 36.6321 29.4857 36.6321C29.7177 36.6321 29.9097 36.5721 30.0617 36.4521C30.2177 36.3321 30.3157 36.1681 30.3557 35.9601H31.0817C31.0137 36.3481 30.8397 36.6561 30.5597 36.8841C30.2797 37.1121 29.9257 37.2261 29.4977 37.2261C29.1777 37.2261 28.8937 37.1581 28.6457 37.0221C28.4017 36.8861 28.2097 36.6901 28.0697 36.4341C27.9297 36.1781 27.8597 35.8761 27.8597 35.5281C27.8597 35.1841 27.9297 34.8841 28.0697 34.6281C28.2097 34.3721 28.4017 34.1761 28.6457 34.0401C28.8937 33.9041 29.1777 33.8361 29.4977 33.8361ZM35.2345 35.3721C35.2345 35.4841 35.2265 35.5821 35.2105 35.6661H32.6665C32.6785 36.0061 32.7725 36.2581 32.9485 36.4221C33.1245 36.5861 33.3425 36.6681 33.6025 36.6681C33.8305 36.6681 34.0225 36.6101 34.1785 36.4941C34.3385 36.3781 34.4365 36.2241 34.4725 36.0321H35.2045C35.1605 36.2641 35.0685 36.4701 34.9285 36.6501C34.7885 36.8301 34.6065 36.9721 34.3825 37.0761C34.1585 37.1761 33.9085 37.2261 33.6325 37.2261C33.3125 37.2261 33.0285 37.1581 32.7805 37.0221C32.5365 36.8861 32.3445 36.6901 32.2045 36.4341C32.0645 36.1781 31.9945 35.8761 31.9945 35.5281C31.9945 35.1841 32.0645 34.8841 32.2045 34.6281C32.3445 34.3721 32.5365 34.1761 32.7805 34.0401C33.0285 33.9041 33.3125 33.8361 33.6325 33.8361C33.9565 33.8361 34.2385 33.9041 34.4785 34.0401C34.7225 34.1721 34.9085 34.3561 35.0365 34.5921C35.1685 34.8241 35.2345 35.0841 35.2345 35.3721ZM34.5445 35.3541C34.5525 35.1381 34.5145 34.9581 34.4305 34.8141C34.3505 34.6661 34.2385 34.5581 34.0945 34.4901C33.9545 34.4181 33.8005 34.3821 33.6325 34.3821C33.3645 34.3821 33.1405 34.4641 32.9605 34.6281C32.7805 34.7921 32.6825 35.0341 32.6665 35.3541H34.5445ZM37.4009 33.8361C37.7889 33.8361 38.0989 33.9361 38.3309 34.1361C38.5669 34.3321 38.7109 34.5961 38.7629 34.9281H38.1149C38.0869 34.7481 38.0089 34.6041 37.8809 34.4961C37.7569 34.3841 37.5909 34.3281 37.3829 34.3281C37.2109 34.3281 37.0769 34.3701 36.9809 34.4541C36.8889 34.5341 36.8429 34.6441 36.8429 34.7841C36.8429 34.8881 36.8769 34.9721 36.9449 35.0361C37.0129 35.1001 37.0969 35.1501 37.1969 35.1861C37.3009 35.2221 37.4469 35.2621 37.6349 35.3061C37.8829 35.3621 38.0829 35.4201 38.2349 35.4801C38.3909 35.5401 38.5229 35.6361 38.6309 35.7681C38.7429 35.8961 38.7989 36.0721 38.7989 36.2961C38.7989 36.5721 38.6929 36.7961 38.4809 36.9681C38.2729 37.1401 37.9909 37.2261 37.6349 37.2261C37.2229 37.2261 36.8889 37.1301 36.6329 36.9381C36.3809 36.7461 36.2289 36.4781 36.1769 36.1341H36.8429C36.8629 36.3141 36.9429 36.4601 37.0829 36.5721C37.2229 36.6841 37.4069 36.7401 37.6349 36.7401C37.7989 36.7401 37.9269 36.6981 38.0189 36.6141C38.1149 36.5261 38.1629 36.4161 38.1629 36.2841C38.1629 36.1681 38.1269 36.0761 38.0549 36.0081C37.9829 35.9401 37.8929 35.8881 37.7849 35.8521C37.6769 35.8121 37.5289 35.7721 37.3409 35.7321C37.1009 35.6761 36.9049 35.6201 36.7529 35.5641C36.6049 35.5081 36.4769 35.4181 36.3689 35.2941C36.2649 35.1661 36.2129 34.9941 36.2129 34.7781C36.2129 34.4981 36.3169 34.2721 36.5249 34.1001C36.7369 33.9241 37.0289 33.8361 37.4009 33.8361Z" fill="black"/>
<path d="M65.457 0H83.8167V4.78947C83.8167 14.9292 75.5968 23.1491 65.457 23.1491V0Z" fill="#EF833B"/>
<path d="M23.9474 121.333H5.58774V116.544C5.58774 106.404 13.8076 98.1841 23.9474 98.1841V121.333Z" fill="#3180D1"/>
<defs>
<filter id="filter0_d_349_2948" x="21.2754" y="61.2979" width="46.8514" height="46.8513" filterUnits="userSpaceOnUse" color-interpolation-filters="sRGB">
<feFlood flood-opacity="0" result="BackgroundImageFix"/>
<feColorMatrix in="SourceAlpha" type="matrix" values="0 0 0 0 0 0 0 0 0 0 0 0 0 0 0 0 0 0 127 0" result="hardAlpha"/>
<feMorphology radius="1" operator="erode" in="SourceAlpha" result="effect1_dropShadow_349_2948"/>
<feOffset dy="1"/>
<feGaussianBlur stdDeviation="2"/>
<feComposite in2="hardAlpha" operator="out"/>
<feColorMatrix type="matrix" values="0 0 0 0 0 0 0 0 0 0 0 0 0 0 0 0 0 0 0.17 0"/>
<feBlend mode="normal" in2="BackgroundImageFix" result="effect1_dropShadow_349_2948"/>
<feBlend mode="normal" in="SourceGraphic" in2="effect1_dropShadow_349_2948" result="shape"/>
</filter>
<linearGradient id="paint0_linear_349_2948" x1="28.4252" y1="59.893" x2="11.1992" y2="78.4445" gradientUnits="userSpaceOnUse">
<stop stop-color="#F36D0D"/>
<stop offset="1" stop-color="#F81616"/>
</linearGradient>
<linearGradient id="paint1_linear_349_2948" x1="78.2265" y1="87.8475" x2="66.8614" y2="57.2824" gradientUnits="userSpaceOnUse">
<stop offset="0.46356" stop-color="#06D13F"/>
<stop offset="0.815536" stop-color="#85FFA7"/>
</linearGradient>
<linearGradient id="paint2_linear_349_2948" x1="67.1595" y1="60.8681" x2="51.5505" y2="49.4709" gradientUnits="userSpaceOnUse">
<stop stop-color="#7EFCA1"/>
<stop offset="1" stop-color="#F0D237"/>
</linearGradient>
<linearGradient id="paint3_linear_349_2948" x1="47.3041" y1="52.0917" x2="23.224" y2="60.238" gradientUnits="userSpaceOnUse">
<stop offset="0.0114715" stop-color="#FFEB34"/>
<stop offset="0.774076" stop-color="#FD7C1F"/>
</linearGradient>
</defs>
</svg>
